<svg id="eye-line" xmlns="http://www.w3.org/2000/svg" width="28" height="28" viewBox="0 0 28 28">
  <path id="Path_47" data-name="Path 47" d="M0,0H28V28H0Z" fill="none"/>
  <path id="Path_48" data-name="Path 48" d="M13.8,3A12.839,12.839,0,0,1,26.425,13.5a12.837,12.837,0,0,1-25.244,0A12.838,12.838,0,0,1,13.8,3Zm0,18.667A10.505,10.505,0,0,0,24.042,13.5a10.506,10.506,0,0,0-20.479,0A10.506,10.506,0,0,0,13.8,21.667Zm0-2.917a5.25,5.25,0,1,1,5.25-5.25A5.25,5.25,0,0,1,13.8,18.75Zm0-2.333A2.917,2.917,0,1,0,10.886,13.5,2.917,2.917,0,0,0,13.8,16.417Z" transform="translate(0.197 0.5)" fill="#f44336"/>
</svg>
