<svg id="lightbulb-line" xmlns="http://www.w3.org/2000/svg" width="24" height="24" viewBox="0 0 24 24">
  <path id="Path_35" data-name="Path 35" d="M0,0H24V24H0Z" fill="none"/>
  <path id="Path_36" data-name="Path 36" d="M9.973,18H11V13h2v5h1.027a5.743,5.743,0,0,1,1.74-3.277c.113-.122.832-.867.917-.973a6,6,0,1,0-9.37,0c.086.107.807.853.918.974A5.745,5.745,0,0,1,9.973,18ZM10,20v1h4V20ZM5.754,15a8,8,0,1,1,12.49,0c-.62.772-2.244,2-2.244,3.5V21a2,2,0,0,1-2,2H10a2,2,0,0,1-2-2V18.5C8,17,6.375,15.774,5.754,15Z" fill="#f44336"/>
</svg>
