<svg xmlns="http://www.w3.org/2000/svg" width="149.175" height="28.314" viewBox="0 0 149.175 28.314"><defs><style>.a{fill:red;}</style></defs><g transform="translate(-59.83 -137)"><g transform="translate(59.83 137)"><path class="a" d="M59.83,141.14H71.612v5.437H66.9v5.153H71.31v5.17H66.9v5.975h5.186v5.437H59.831V141.14Z" transform="translate(-59.83 -140.569)"/><path class="a" d="M178.6,149.4h-7.067v-4.723a8.485,8.485,0,0,0-.226-2.57.974.974,0,0,0-1-.51,1.044,1.044,0,0,0-1.108.621,9.428,9.428,0,0,0-.235,2.685v12.621a8.836,8.836,0,0,0,.235,2.584,1,1,0,0,0,1.057.6.993.993,0,0,0,1.032-.606,9.925,9.925,0,0,0,.243-2.843V153.85H178.6v1.06a20.881,20.881,0,0,1-.6,5.984,6.119,6.119,0,0,1-2.635,3.093,9.027,9.027,0,0,1-5.026,1.327,10.418,10.418,0,0,1-5.119-1.124,5.466,5.466,0,0,1-2.668-3.114,20.453,20.453,0,0,1-.654-5.984v-7.937a35.37,35.37,0,0,1,.2-4.405,6.156,6.156,0,0,1,1.2-2.828,6.688,6.688,0,0,1,2.769-2.14,11.33,11.33,0,0,1,9.223.426,5.787,5.787,0,0,1,2.668,3.009,18.1,18.1,0,0,1,.637,5.607v2.58Z" transform="translate(-147.818 -137)"/><path class="a" d="M304.383,240.4v4.683H295.47V240.4Z" transform="translate(-262.96 -226.134)"/><path class="a" d="M389.91,149.4h-7.067v-4.723a8.485,8.485,0,0,0-.226-2.57.974.974,0,0,0-1-.51,1.044,1.044,0,0,0-1.108.621,9.428,9.428,0,0,0-.235,2.685v12.621a8.835,8.835,0,0,0,.235,2.584,1,1,0,0,0,1.057.6.993.993,0,0,0,1.032-.606,9.924,9.924,0,0,0,.243-2.843V153.85h7.067v1.06a20.881,20.881,0,0,1-.6,5.984,6.119,6.119,0,0,1-2.635,3.093,9.027,9.027,0,0,1-5.026,1.327,10.417,10.417,0,0,1-5.119-1.124,5.466,5.466,0,0,1-2.668-3.114,20.453,20.453,0,0,1-.654-5.984v-7.937a35.372,35.372,0,0,1,.2-4.405,6.156,6.156,0,0,1,1.2-2.828,6.688,6.688,0,0,1,2.769-2.14,11.33,11.33,0,0,1,9.223.426,5.787,5.787,0,0,1,2.668,3.009,18.1,18.1,0,0,1,.637,5.607Z" transform="translate(-329.974 -137)"/><path class="a" d="M525.242,181.964v5.455a23.007,23.007,0,0,1-.3,4.405,6.18,6.18,0,0,1-1.293,2.619,5.845,5.845,0,0,1-2.543,1.8,10.161,10.161,0,0,1-3.566.579,12.726,12.726,0,0,1-3.809-.5,5.189,5.189,0,0,1-2.425-1.494,5.88,5.88,0,0,1-1.233-2.417,18.194,18.194,0,0,1-.37-4.255v-5.706a13.946,13.946,0,0,1,.672-4.851,5.576,5.576,0,0,1,2.417-2.8,8.5,8.5,0,0,1,4.465-1.057,10.184,10.184,0,0,1,3.92.68,6.141,6.141,0,0,1,3.743,4.019A14.079,14.079,0,0,1,525.242,181.964Zm-6.781-1.679a7.406,7.406,0,0,0-.185-2.156.761.761,0,0,0-.789-.444.8.8,0,0,0-.806.444,6.821,6.821,0,0,0-.2,2.156v10.054a6.523,6.523,0,0,0,.2,2.056.917.917,0,0,0,1.587.043,5.7,5.7,0,0,0,.193-1.88Z" transform="translate(-447.633 -168.671)"/><path class="a" d="M653.416,176.66v22.272h-6.9l.117-1.85a4.725,4.725,0,0,1-1.737,1.69,4.883,4.883,0,0,1-2.374.563,5.359,5.359,0,0,1-2.534-.537,3.484,3.484,0,0,1-1.486-1.427,5.234,5.234,0,0,1-.6-1.854q-.118-.964-.117-3.835V176.66h6.781v15.156a15.658,15.658,0,0,0,.16,3.088q.159.486.864.487.755,0,.9-.5a19.254,19.254,0,0,0,.143-3.239V176.66Z" transform="translate(-558.051 -171.188)"/><path class="a" d="M775.58,174.143l-.117,2.052a5.08,5.08,0,0,1,1.8-1.84,4.832,4.832,0,0,1,2.459-.614,4.666,4.666,0,0,1,2.853.822,3.657,3.657,0,0,1,1.427,2.072,18.962,18.962,0,0,1,.319,4.171v15.61h-6.781V180.99a14.338,14.338,0,0,0-.152-2.8q-.151-.5-.839-.5a.839.839,0,0,0-.906.579,14.569,14.569,0,0,0-.185,3.1v15.055H768.68V174.143Z" transform="translate(-670.882 -168.671)"/><path class="a" d="M912.71,182.569h-6.395V180a5.053,5.053,0,0,0-.218-1.821.806.806,0,0,0-.806-.479.788.788,0,0,0-.789.419,5.393,5.393,0,0,0-.2,1.88v10.506a4.1,4.1,0,0,0,.3,1.788.957.957,0,0,0,.89.6.916.916,0,0,0,.931-.621,7.465,7.465,0,0,0,.243-2.35V187.27h6.042a34.958,34.958,0,0,1-.193,4,6.415,6.415,0,0,1-1.124,2.736,6.009,6.009,0,0,1-2.475,2.115,8.892,8.892,0,0,1-3.776.713,8.991,8.991,0,0,1-4.549-.982,5.4,5.4,0,0,1-2.374-2.752,14.237,14.237,0,0,1-.7-5.026v-6.327a12.241,12.241,0,0,1,.571-4.28,5.55,5.55,0,0,1,2.434-2.576,8.571,8.571,0,0,1,4.532-1.133,8.682,8.682,0,0,1,4.532,1.124,5.526,5.526,0,0,1,2.5,2.837A14.838,14.838,0,0,1,912.71,182.569Z" transform="translate(-781.947 -168.688)"/><path class="a" d="M1029.192,141.14v3.542h-6.982V141.14Zm0,4.9v22.272h-6.982V146.041Z" transform="translate(-889.434 -140.569)"/><path class="a" d="M1097.443,141.14v27.173h-6.983V141.14Z" transform="translate(-948.267 -140.569)"/></g></g></svg>