<svg id="volume" xmlns="http://www.w3.org/2000/svg" width="24" height="24" viewBox="0 0 24 24">
  <path id="Path_90" data-name="Path 90" d="M0,0H24V24H0Z" fill="none"/>
  <path id="Path_91" data-name="Path 91" d="M19.39,3.161,20.8,4.575,18.328,7.05,20.8,9.525,18.328,12,20.8,14.476l-2.475,2.475L20.8,19.426,19.389,20.84,15.5,16.95l2.475-2.474L15.5,12l2.475-2.475L15.5,7.05l3.89-3.889Zm-6.5.578A.5.5,0,0,1,13,4.055v15.89a.5.5,0,0,1-.817.387L6.89,16H3a1,1,0,0,1-1-1V9A1,1,0,0,1,3,8H6.889l5.294-4.332a.5.5,0,0,1,.7.07ZM11,7.22,7.6,10H4v4H7.6l3.4,2.78Z" fill="#f44336"/>
</svg>
